<svg width="35" height="24" viewBox="0 0 35 24" fill="none" xmlns="http://www.w3.org/2000/svg">
<path d="M22.5703 11.8125C22.834 11.8125 23.0449 11.8125 23.3086 11.7598L30.5332 9.65039V19.0371C30.5332 19.8281 30.0059 20.5137 29.2148 20.6719L17.8242 23.5723C17.2969 23.6777 16.7168 23.6777 16.1895 23.5723L4.79883 20.6719C4.06055 20.5137 3.5332 19.8281 3.5332 19.0371V9.65039L10.7578 11.7598C10.9688 11.8125 11.1797 11.8652 11.4434 11.8652C12.3398 11.8652 13.1836 11.3906 13.6055 10.5996L17.0332 4.95703L20.4082 10.5996C20.8301 11.3379 21.6738 11.8125 22.5703 11.8125ZM33.8027 5.90625C34.0137 6.38086 33.8027 6.96094 33.2754 7.11914L22.834 10.125C22.4648 10.2305 22.043 10.0723 21.832 9.75586L17.0332 1.6875L30.2168 0.0527344C30.5859 0 30.9023 0.158203 31.0605 0.474609L33.8027 5.90625ZM2.95312 0.474609C3.11133 0.158203 3.42773 0 3.79688 0.0527344L17.0332 1.6875L12.1816 9.70312C11.9707 10.0723 11.5488 10.2305 11.1797 10.125L0.738281 7.11914C0.263672 6.96094 0 6.38086 0.210938 5.90625L2.95312 0.474609Z" fill="#F0C14B"/>
</svg>
